<svg width="63" height="63" viewBox="0 0 63 63" fill="none" xmlns="http://www.w3.org/2000/svg">
<circle cx="31.5" cy="31.5" r="31.5" fill="url(#paint0_linear_941_13)"/>
<path fill-rule="evenodd" clip-rule="evenodd" d="M22.7538 27.7147L20.1147 30.3528C19.944 30.5297 19.8495 30.7665 19.8516 31.0123C19.8537 31.2581 19.9523 31.4932 20.1261 31.667C20.3 31.8409 20.5351 31.9395 20.7809 31.9416C21.0267 31.9437 21.2635 31.8492 21.4404 31.6785L24.0785 29.0422C24.9201 29.6402 25.9099 29.9952 26.9398 30.0682C27.9696 30.1413 28.9997 29.9297 29.9173 29.4566C30.8349 28.9835 31.6047 28.267 32.1424 27.3857C32.6801 26.5044 32.965 25.4921 32.966 24.4597C32.966 21.3557 30.445 18.8347 27.341 18.8347C26.3094 18.8358 25.298 19.1204 24.4172 19.6573C23.5364 20.1943 22.8201 20.9631 22.3467 21.8796C21.8733 22.7961 21.6608 23.8251 21.7326 24.8542C21.8044 25.8833 22.1577 26.8728 22.7538 27.7147Z" fill="white"/>
<path fill-rule="evenodd" clip-rule="evenodd" d="M38.5224 42.3181L36.6474 42.3172V31.0625C36.6474 30.8139 36.5486 30.5754 36.3728 30.3996C36.197 30.2238 35.9585 30.125 35.7099 30.125H31.9599C31.7112 30.125 31.4728 30.2238 31.297 30.3996C31.1212 30.5754 31.0224 30.8139 31.0224 31.0625V42.3153H29.1474V34.8237C29.1474 34.5751 29.0486 34.3367 28.8728 34.1608C28.697 33.985 28.4585 33.8862 28.2099 33.8862H24.4599C24.2112 33.8862 23.9728 33.985 23.797 34.1608C23.6212 34.3367 23.5224 34.5751 23.5224 34.8237V42.3134H22.6299C22.1124 42.3125 21.6924 41.8934 21.6924 41.3759V34.8125C21.6924 34.5639 21.5936 34.3254 21.4178 34.1496C21.242 33.9738 21.0035 33.875 20.7549 33.875C20.5062 33.875 20.2678 33.9738 20.092 34.1496C19.9162 34.3254 19.8174 34.5639 19.8174 34.8125V41.3759C19.8174 42.1217 20.1136 42.8369 20.6408 43.3643C21.1681 43.8918 21.8832 44.1882 22.6289 44.1884C27.5508 44.1894 43.2099 44.1875 43.2099 44.1875C43.4585 44.1875 43.697 44.0887 43.8728 43.9129C44.0486 43.7371 44.1474 43.4986 44.1474 43.25V26.375C44.1474 26.1264 44.0486 25.8879 43.8728 25.7121C43.697 25.5363 43.4585 25.4375 43.2099 25.4375H39.4599C39.2112 25.4375 38.9728 25.5363 38.797 25.7121C38.6212 25.8879 38.5224 26.1264 38.5224 26.375V42.3181Z" fill="white"/>
<defs>
<linearGradient id="paint0_linear_941_13" x1="31.5" y1="63" x2="31.5" y2="1.25001" gradientUnits="userSpaceOnUse">
<stop stop-color="#3763EB"/>
<stop offset="1" stop-color="#5980F8"/>
</linearGradient>
</defs>
</svg>
